<?xml version="1.0" encoding="utf-8"?>
<!-- Generator: Adobe Illustrator 24.1.0, SVG Export Plug-In . SVG Version: 6.00 Build 0)  -->
<svg version="1.1" id="Calque_1" xmlns="http://www.w3.org/2000/svg" xmlns:xlink="http://www.w3.org/1999/xlink" x="0px" y="0px"
	 viewBox="0 0 211 206" style="enable-background:new 0 0 211 206;" xml:space="preserve">
<style type="text/css">
	.st0{fill-rule:evenodd;clip-rule:evenodd;fill:#1E1E1E;}
</style>
<path class="st0" d="M105.6-0.2C47.3-0.2-0.1,47.1-0.1,105.6c0,46.7,30.3,86.4,72.3,100.3c5.3,1,7.2-2.3,7.2-5.1
	c0-2.5-0.1-9.2-0.1-18c-29.4,6.4-35.6-14.2-35.6-14.2c-4.8-12.2-11.7-15.5-11.7-15.5c-9.6-6.6,0.7-6.4,0.7-6.4
	c10.6,0.7,16.2,10.9,16.2,10.9c9.4,16.2,24.8,11.5,30.8,8.8c1-6.8,3.7-11.5,6.7-14.1c-23.5-2.7-48.2-11.7-48.2-52.3
	c0-11.5,4.1-21,10.9-28.4c-1.1-2.7-4.7-13.4,1-28c0,0,8.9-2.8,29.1,10.8c8.4-2.3,17.5-3.5,26.5-3.6c9,0,18,1.2,26.5,3.6
	c20.2-13.7,29.1-10.8,29.1-10.8c5.8,14.6,2.1,25.3,1.1,28c6.8,7.4,10.9,16.8,10.9,28.4c0,40.6-24.7,49.6-48.3,52.2
	c3.8,3.3,7.2,9.7,7.2,19.6c0,14.1-0.1,25.5-0.1,29c0,2.8,1.9,6.1,7.3,5.1c42-14,72.3-53.6,72.3-100.3C211.4,47.1,164-0.2,105.6-0.2z
	"/>
</svg>
