<?xml version="1.0" encoding="utf-8"?>
<!-- Generator: Adobe Illustrator 24.1.0, SVG Export Plug-In . SVG Version: 6.00 Build 0)  -->
<svg version="1.1" id="Layer_1" xmlns="http://www.w3.org/2000/svg" xmlns:xlink="http://www.w3.org/1999/xlink" x="0px" y="0px"
	 viewBox="0 0 382 382" style="enable-background:new 0 0 382 382;" xml:space="preserve">
<style type="text/css">
	.st0{fill:#1E1E1E;}
	.st1{fill:none;}
	.st2{fill:none;stroke:#000000;stroke-width:7;stroke-miterlimit:10;}
</style>
<path class="st0" d="M-217.6,291h-312.9c-19.1,0-34.6,15.5-34.6,34.6v312.9c0,19.1,15.5,34.6,34.6,34.6h312.9
	c19.1,0,34.6-15.5,34.6-34.6V325.6C-183,306.5-198.5,291-217.6,291z M-446.8,620.8c0,5.6-4.5,10.1-10.1,10.1h-42.8
	c-5.6,0-10.1-4.5-10.1-10.1V441.4c0-5.6,4.5-10.1,10.1-10.1h42.8c5.6,0,10.1,4.5,10.1,10.1V620.8z M-478.3,414.4
	c-22.5,0-40.7-18.2-40.7-40.7c0-22.5,18.2-40.7,40.7-40.7c22.5,0,40.7,18.2,40.7,40.7C-437.6,396.2-455.8,414.4-478.3,414.4z
	 M-223.1,621.7c0,5.1-4.1,9.2-9.2,9.2h-45.9c-5.1,0-9.2-4.1-9.2-9.2v-84.2c0-12.6,3.7-55-32.8-55c-28.3,0-34.1,29.1-35.2,42.1v97.1
	c0,5.1-4.1,9.2-9.2,9.2h-44.4c-5.1,0-9.2-4.1-9.2-9.2V440.6c0-5.1,4.1-9.2,9.2-9.2h44.4c5.1,0,9.2,4.1,9.2,9.2v15.7
	c10.5-15.8,26.1-27.9,59.3-27.9c73.6,0,73.1,68.7,73.1,106.5L-223.1,621.7L-223.1,621.7z"/>
<g>
	<path class="st1" d="M160.7,114c-8.9,4.3-16.3,10.2-22.5,17.5c-6.1,7.3-10.8,15.9-14,25.7c-2.4,7.3-3.9,14.9-4.5,22.9h103.2v9.6
		H119.4c0.1,10.7,1.7,20.8,4.8,30.3c3.2,9.8,7.9,18.4,14,25.7c6.1,7.3,13.6,13.2,22.5,17.5c5.9,2.9,12.4,4.8,19.5,5.8h21.6
		c11.3-1.5,21.1-5.5,29.5-12.1l-26.1-18.6l5.6-7.5l27.8,20c7.7-7.7,13.6-16.9,17.6-27.5c4-10.6,6-22.2,6-34.8
		c0-11.1-1.6-21.6-4.8-31.4c-3.2-9.8-7.9-18.4-14-25.7c-6.1-7.3-13.6-13.2-22.3-17.5c-6.6-3.2-13.8-5.3-21.8-6.1h-16.6
		C174.6,108.7,167.3,110.7,160.7,114z"/>
	<path class="st1" d="M130.4,252.7c-4.3-5-7.9-10.5-11-16.5V269h31.1C142.8,264.7,136,259.3,130.4,252.7z"/>
	<path class="st1" d="M151.1,107.9h-31.7V141c3-6,6.7-11.6,11-16.5C136.2,117.7,143.1,112.2,151.1,107.9z"/>
	<path d="M246.9,256.9c8.4-8.2,14.8-18.1,19.2-29.7c4.4-11.6,6.6-24.5,6.6-38.6c0-12.6-1.9-24.3-5.6-35.4
		c-3.7-11-9.1-20.6-16.1-28.7c-6-7-13.2-12.7-21.6-17.2v0.6h-30.3c7.9,0.8,15.2,2.9,21.8,6.1c8.8,4.3,16.2,10.2,22.3,17.5
		c6.1,7.3,10.8,15.9,14,25.7c3.2,9.8,4.8,20.3,4.8,31.4c0,12.6-2,24.1-6,34.8c-4,10.6-9.9,19.8-17.6,27.5l-27.8-20l-5.6,7.5
		l26.1,18.6c-8.4,6.5-18.2,10.5-29.5,12.1h29.1v0.1c3.1-1.7,6-3.7,8.9-5.9l28.5,20.5l5.6-7.5L246.9,256.9z"/>
	<path d="M190.9,278.9c2.6,0,5.2-0.1,7.8-0.3h-15.4C185.8,278.8,188.3,278.9,190.9,278.9z"/>
	<path d="M138.2,245.7c-6.1-7.3-10.8-15.9-14-25.7c-3.1-9.5-4.7-19.6-4.8-30.3h0v46.5c3,6,6.7,11.6,11,16.5
		c5.7,6.6,12.4,12,20.1,16.3h29.6c-7-1-13.5-2.9-19.5-5.8C151.8,258.9,144.4,253,138.2,245.7z"/>
	<path d="M119.7,180.1c0.6-8,2.1-15.6,4.5-22.9c3.2-9.8,7.9-18.4,14-25.7c6.1-7.3,13.6-13.2,22.5-17.5c6.6-3.2,13.9-5.3,21.9-6.1
		h-31.5c-8,4.4-14.9,9.9-20.7,16.6c-4.3,5-7.9,10.5-11,16.5v39.1H119.7z"/>
	<path d="M119.4,189.7h103.5v-9.6H119.7c-0.2,2.8-0.3,5.6-0.3,8.5C119.4,189,119.4,189.3,119.4,189.7z"/>
	<path d="M190.9,269.7c3.8,0,7.4-0.3,10.8-0.7h-21.6C183.6,269.5,187.2,269.7,190.9,269.7z"/>
	<path d="M150.5,269h-31.1v-32.8c-1.9-3.9-3.6-7.9-5.1-12.2c-3.7-11-5.6-22.8-5.6-35.4c0-12.6,1.8-24.3,5.6-35.4
		c1.4-4.3,3.1-8.4,5.1-12.2v-33.1h31.7c1.7-0.9,3.4-1.8,5.1-2.6c10.2-4.7,21.8-7,34.7-7h-82.6v180.3h75c-9.9-0.8-18.9-3-27.1-6.7
		C154.3,271,152.4,270,150.5,269z"/>
	<path d="M182.6,107.9h16.6c-2.7-0.3-5.5-0.4-8.3-0.4C188,107.4,185.3,107.6,182.6,107.9z"/>
	<path d="M201.7,269c-3.5,0.5-7.1,0.7-10.8,0.7c-3.7,0-7.3-0.3-10.7-0.7h-29.6c1.8,1,3.7,2,5.7,2.9c8.2,3.7,17.2,5.9,27.1,6.7h15.4
		c11.9-0.9,22.6-4.1,32.1-9.5V269H201.7z"/>
	<path d="M151.1,107.9h31.5c2.7-0.3,5.5-0.4,8.3-0.4c2.9,0,5.6,0.1,8.3,0.4h30.3v-0.6c-1.3-0.7-2.7-1.4-4.1-2
		c-10.1-4.7-21.7-7-34.5-7c-12.9,0-24.4,2.3-34.7,7C154.5,106.1,152.8,107,151.1,107.9z"/>
	<path d="M119.4,189.7c0-0.4,0-0.7,0-1.1c0-2.9,0.1-5.7,0.3-8.5h-0.3V141c-1.9,3.9-3.6,7.9-5.1,12.2c-3.7,11-5.6,22.8-5.6,35.4
		c0,12.6,1.8,24.4,5.6,35.4c1.4,4.3,3.1,8.4,5.1,12.2L119.4,189.7L119.4,189.7z"/>
</g>
<rect x="18" y="18" class="st2" width="346" height="346"/>
</svg>
